<svg id="Layer_1" data-name="Layer 1" xmlns="http://www.w3.org/2000/svg" viewBox="0 0 56.81 62.77"><defs><style>.cls-1{fill:#fa322a;}.cls-2{fill:#fc560e;}.cls-3{fill:#fc550e;}.cls-4{fill:#fa342c;}.cls-5{fill:#fefefe;}</style></defs><title>Artboard 1 copy</title><path class="cls-1" d="M25.22,23.14c6-.25,10.45,2.51,14.2,6.85a17.83,17.83,0,0,1,4.24,11c.39,6.71-2.4,11.84-7.52,15.88C32,60.17,27.19,61.11,22,60.45c-6.42-.82-10.94-4.6-13.77-10a18,18,0,0,1,3.13-21.51,18.85,18.85,0,0,1,9.92-5.55A28.77,28.77,0,0,1,25.22,23.14Z"/><path class="cls-2" d="M22.24,9.62A44,44,0,0,1,21,4.5c5.53-1.37,11-2,16.52-.52a23,23,0,0,1,9.3,5.15A38.06,38.06,0,0,1,54.1,18.2l-4.46,2.75c-.74-1.07-1.42-2.12-2.17-3.13-2.56-3.47-5.54-6.43-9.63-8.07a15.59,15.59,0,0,0-5-1.15,29.28,29.28,0,0,0-9.82.93A5.71,5.71,0,0,1,22.24,9.62Z"/><path class="cls-3" d="M26.32,13.37a17.24,17.24,0,0,1,12.37,2.12,22.1,22.1,0,0,1,7.14,7.58,44.55,44.55,0,0,1-4.42,2.79c-.75-1-1.46-2-2.21-2.92a11.19,11.19,0,0,0-7.62-4.45,2.73,2.73,0,0,1-.62-.23C29.18,16.85,27.29,15.54,26.32,13.37Z"/><path class="cls-4" d="M26.32,13.37c1.19,1.22,2.4,2.43,3.58,3.67.38.39.87.69,1.06,1.24a40.58,40.58,0,0,0-6.43.77l-1.29-4.92A8.41,8.41,0,0,1,26.32,13.37Z"/><path class="cls-5" d="M31.64,41.87A6.76,6.76,0,0,1,25,48.69a7,7,0,0,1-6.94-6.75c-.07-3.35,3.31-7.12,6.8-6.88C28.76,35.33,31.64,38,31.64,41.87Z"/></svg>